<svg width="108" height="56" viewBox="0 0 108 56" fill="none" xmlns="http://www.w3.org/2000/svg">
<path d="M19.3381 0.5H23.4156L23.5787 0.662651L25.3728 0.825301L28.6348 1.8012C31.7771 3.11325 34.3596 4.98373 36.382 7.41265L38.9916 10.991L40.6226 14.244L41.6012 17.8223L41.7643 22.3765L40.7857 26.9307L39.3178 30.0211C37.9913 32.3849 36.3874 34.4723 34.5064 36.2831C31.9294 38.8096 28.4499 40.4361 24.068 41.1627H1.07085L0.74465 41L0.5 41.0813V32.4608L0.74465 32.2169L5.80075 29.9398H23.9049C25.8729 29.3542 27.4224 28.3512 28.5532 26.9307C29.4448 25.9765 30.0972 24.7837 30.5104 23.3524L30.6735 22.7018V19.6114C29.9559 16.6404 28.5151 14.3904 26.3514 12.8614C25.4924 12.1458 24.405 11.6578 23.0894 11.3976H20.3167C17.4678 11.9181 15.3204 13.138 13.8742 15.0572C12.2106 17.5729 11.5038 21.0428 11.7539 25.4669L11.917 25.8735H0.9893V22.0512L1.1524 21.8886V20.0994L1.3155 19.9367V18.4729L1.4786 18.3102L1.6417 16.1958L2.7834 12.4548C3.93597 9.91747 5.48542 7.7759 7.43175 6.03012C9.12799 4.46867 11.0852 3.16747 13.3034 2.12651L15.913 1.1506L19.3381 0.5ZM46.4942 2.93976H86.046L86.1275 3.02108V11.3976H46.5758L46.4942 11.3163V2.93976ZM46.4942 14H71.2039C76.1077 15.1277 79.8862 17.3777 82.5393 20.75C84.3552 22.897 85.8231 25.391 86.943 28.2319L87.7585 31.6476L87.9216 35.5512L87.7585 35.7139V37.0151L87.4323 38.6416L85.9644 42.5452C84.4095 45.3861 82.4795 47.853 80.1744 49.9458C78.1519 51.6699 75.7054 52.9711 72.8349 53.8494L69.5729 54.5H65.3323L62.0703 53.8494L57.5035 51.8976C55.3614 50.6181 53.4858 49.0729 51.8765 47.262C50.0607 45.2777 48.7559 42.7837 47.9621 39.7801L47.6359 38.1536V37.0151L47.4728 36.8524V35.5512L47.3097 35.3886V33.5994L47.1466 33.4367V29.1265H57.9112V33.5994L58.0743 33.762L58.2374 35.5512L59.0529 38.3163C59.5857 39.5199 60.3197 40.5229 61.2548 41.3253C62.1681 42.0952 63.2555 42.6916 64.5168 43.1145L66.3109 43.6024H69.2467L71.5301 42.7892C72.7261 42.0843 73.7319 41.1898 74.5474 40.1054C75.5043 38.9994 76.211 37.644 76.6677 36.0392L76.8308 35.2259V32.6235C76.3633 30.3789 75.4118 28.6169 73.9766 27.3373C72.9545 26.2964 71.6497 25.5373 70.0622 25.0602H51.9581L46.6573 19.7741L46.4942 19.4488V14ZM100.399 38.2349L101.867 38.3976L103.661 39.0482L106.189 41.244C107.124 42.2524 107.559 43.6892 107.494 45.5542H100.317V41.0813L100.154 40.9187V38.4789L100.399 38.2349ZM97.1368 38.3976H98.6047L98.6862 38.4789V45.5542H91.4283C91.3195 45.5542 91.2924 45.3102 91.3467 44.8223C91.6512 42.903 92.3851 41.412 93.5486 40.3494C94.4511 39.406 95.6471 38.7554 97.1368 38.3976ZM0.5 43.6024H39.8887L39.9702 43.6837V52.2229H0.58155L0.5 52.1416V43.6024ZM91.5914 47.1807H98.6862V54.5H97.463L95.832 54.012C94.6685 53.4916 93.7171 52.7596 92.9777 51.8163C92.0317 50.7536 91.4881 49.2898 91.3467 47.4247L91.5914 47.1807ZM100.317 47.1807H107.412L107.494 47.262V48.7259C107.048 50.6126 106.151 52.0494 104.802 53.0361L102.193 54.3373L100.317 54.5V47.1807Z" fill="white" stroke="white"/>
</svg>
