<svg xmlns="http://www.w3.org/2000/svg" width="620" height="620" viewBox="0 0 620 620">
  <path d="M 199.0 363.5 L 107.0 363.5 L 105.5 362.0 L 105.5 333.0 L 107.0 331.5 L 127.0 322.5 L 197.0 322.5 L 209.0 315.5 L 216.5 307.0 L 220.5 299.0 L 221.5 281.0 L 219.5 274.0 L 212.5 263.0 L 206.0 256.5 L 198.0 251.5 L 192.0 249.5 L 181.0 249.5 L 166.0 254.5 L 153.5 267.0 L 148.5 281.0 L 147.5 304.0 L 146.0 305.5 L 109.0 305.5 L 107.5 304.0 L 110.5 267.0 L 114.5 255.0 L 122.5 241.0 L 138.0 225.5 L 149.0 218.5 L 160.0 213.5 L 176.0 209.5 L 193.0 209.5 L 204.0 211.5 L 221.0 218.5 L 235.0 228.5 L 247.5 243.0 L 255.5 256.0 L 260.5 270.0 L 262.5 281.0 L 262.5 293.0 L 257.5 313.0 L 243.5 336.0 L 223.0 354.5 L 210.0 360.5 Z M 431.0 249.5 L 283.0 249.5 L 282.5 220.0 L 285.0 218.5 L 431.0 219.5 L 432.5 224.0 L 432.5 247.0 Z M 371.0 415.5 L 352.0 415.5 L 334.0 410.5 L 319.0 402.5 L 302.5 388.0 L 293.5 375.0 L 287.5 359.0 L 285.5 347.0 L 284.5 321.0 L 286.0 319.5 L 323.0 319.5 L 324.5 321.0 L 324.5 341.0 L 330.5 359.0 L 341.0 369.5 L 357.0 375.5 L 373.0 374.5 L 383.0 368.5 L 391.5 359.0 L 396.5 350.0 L 398.5 340.0 L 395.5 322.0 L 384.0 308.5 L 373.0 302.5 L 302.0 301.5 L 282.5 282.0 L 283.0 261.5 L 380.0 262.5 L 396.0 268.5 L 407.0 275.5 L 419.5 288.0 L 428.5 301.0 L 433.5 311.0 L 438.5 329.0 L 437.5 354.0 L 430.5 372.0 L 418.5 389.0 L 404.0 402.5 L 384.0 412.5 Z M 479.0 381.5 L 454.5 381.0 L 454.5 376.0 L 457.5 368.0 L 466.0 359.5 L 474.0 355.5 L 480.5 356.0 L 480.5 380.0 Z M 513.0 381.5 L 489.0 381.5 L 487.5 380.0 L 488.0 355.5 L 497.0 356.5 L 505.5 362.0 L 513.5 374.0 Z M 255.0 406.5 L 106.0 406.5 L 105.5 376.0 L 255.0 375.5 Z M 480.0 415.5 L 468.0 412.5 L 459.5 405.0 L 454.5 395.0 L 455.0 389.5 L 480.5 390.0 Z M 493.0 415.5 L 489.0 415.5 L 487.5 414.0 L 487.5 391.0 L 489.0 389.5 L 513.0 389.5 L 514.5 392.0 L 509.5 404.0 L 503.0 410.5 Z" fill="#ffffff" fill-rule="evenodd"/>
</svg>
